<?xml version="1.0" encoding="UTF-8" standalone="no"?><!DOCTYPE svg PUBLIC "-//W3C//DTD SVG 1.1//EN" "http://www.w3.org/Graphics/SVG/1.1/DTD/svg11.dtd"><svg width="100%" height="100%" viewBox="0 0 1082 981" version="1.1" xmlns="http://www.w3.org/2000/svg" xmlns:xlink="http://www.w3.org/1999/xlink" xml:space="preserve" xmlns:serif="http://www.serif.com/" style="fill-rule:evenodd;clip-rule:evenodd;stroke-linejoin:round;stroke-miterlimit:2;"><g><path d="M254.253,16.268l1.607,0.515c-7.492,24.201 -9.82,42.224 -15.62,66.479c-3.381,14.142 -9.985,39.547 -24.631,59.921c-25.833,35.934 -91.029,52.798 -112.553,92.675c-4.923,9.12 -9.646,20.814 -14.784,39.921c-11.619,43.196 -15.25,96.03 -19.767,136.443c-4.988,44.651 4.986,91.128 0.607,134.504c-3.597,35.622 -15.059,70.028 -10.501,105.639c1.534,11.993 7.676,56.503 23.335,98.858c13.27,35.891 26.166,51.374 37.507,62.719c20.875,20.885 49.691,39.003 86.747,60.109c12.931,7.365 45.798,25.066 111.414,42.239c35.606,9.32 71.465,11.501 111.032,15.806c34.791,3.786 85.79,9.954 129.896,9.638c61.353,-0.438 139.894,-1.979 181.051,-14.285c21.738,-6.5 41.035,-17.285 60.456,-31.565c17.057,-12.542 28.469,-23.814 30.764,-26.082c34.198,-33.784 76.041,-92.497 103.345,-120.04c28.421,-28.669 65.036,-53.23 82.946,-86.487c13.564,-25.189 25.273,-75.015 21.413,-151.1c-0.883,-17.381 -2.012,-33.898 -8.52,-61.652c-3.964,-16.899 -8.625,-31.805 -8.903,-32.824c-1.541,-5.638 -2.141,-9.45 -12.195,-43.92c-4.314,-14.79 -4.306,-14.789 -8.548,-29.597c-13.263,-46.308 -34.355,-94.168 -47.536,-136.9c-10.811,-35.051 -17.961,-66.561 -29.101,-107.647l1.627,-0.449c14.705,53.179 21.833,86.785 38.618,132.459c13.725,37.35 29.921,74.319 42.262,113.085c7.994,25.114 15.551,45.833 23.254,70.344c0.005,0.014 3.767,13.746 7.026,28.968c6.241,29.153 7.255,46.8 7.737,69.191c2.393,111.068 -23.209,150.176 -27.923,157.633c-22.297,35.267 -60.026,58.566 -88.632,91.199c-33.966,38.747 -71.027,92.206 -104.039,121.496c-19.965,17.715 -34.108,26.658 -44.397,32.463c-27.385,15.451 -48.999,19.637 -67.332,22.314c-24.532,3.582 -65.366,7.172 -154.397,7.09c-47.694,-0.043 -96.909,-6.976 -150.003,-12.011c-36.745,-3.486 -63.21,-5.981 -93.502,-13.778c-38.047,-9.794 -77.833,-22.651 -111.316,-41.24c-35.692,-19.816 -81.957,-45.515 -105.757,-79.842c-9.194,-13.261 -16.469,-30.53 -17.639,-33.308c-20.344,-48.297 -28.005,-106.95 -28.885,-118.744c-2.929,-39.255 10.9,-75.111 12.314,-114.27c1.437,-39.822 -5.76,-80.521 -1.125,-120.795c4.614,-40.07 8.844,-98.297 22.422,-143.566c2.542,-8.474 5.75,-16.307 6.319,-17.699c7.234,-17.666 13.288,-24.819 15.568,-27.57c27.97,-33.759 84.516,-48.99 108.299,-82.349c25.215,-35.369 26.828,-82.051 39.421,-122.025c0.205,-0.655 0.417,-1.308 0.623,-1.963Z" style="fill:#fff;"/></g></svg>