<?xml version="1.0" encoding="UTF-8" standalone="no"?>
<!DOCTYPE svg PUBLIC "-//W3C//DTD SVG 1.1//EN" "http://www.w3.org/Graphics/SVG/1.1/DTD/svg11.dtd">
<svg width="100%" height="100%" viewBox="0 0 2000 2000" version="1.1" xmlns="http://www.w3.org/2000/svg" xmlns:xlink="http://www.w3.org/1999/xlink" xml:space="preserve" xmlns:serif="http://www.serif.com/" style="fill-rule:evenodd;clip-rule:evenodd;stroke-linejoin:round;stroke-miterlimit:2;">
    <g transform="matrix(1.249596,0.079953,0.079953,1.025327,-152.271607,-14.080627)">
        <path d="M285.37,26.798L286.63,27.202C279.087,51.393 276.084,69.205 269.898,93.344C266.292,107.418 259.387,132.734 246.33,153.623C223.3,190.465 169.807,211.084 149.995,251.521C145.464,260.769 140.932,272.528 135.601,291.578C123.547,334.647 117.313,386.662 111.146,426.558C104.334,470.637 109.441,515.568 103.199,558.359C98.072,593.501 86.696,627.944 88.128,662.564C88.61,674.223 90.758,717.466 100.696,758C109.118,792.348 118.519,806.715 126.928,817.124C142.407,836.286 164.447,852.238 192.926,870.602C202.864,877.01 228.188,892.299 279.884,905.017C307.936,911.919 336.64,911.808 368.193,913.546C395.937,915.075 436.567,917.922 472.06,914.847C521.432,910.57 584.697,904.134 618.57,889.49C636.461,881.755 652.657,869.974 669.173,854.759C683.678,841.396 693.563,829.631 695.551,827.264C725.174,792.005 762.51,731.83 786.197,703.121C810.853,673.238 841.842,646.867 858.332,613.145C870.821,587.604 883.363,538.031 885.03,463.696C885.41,446.715 885.538,430.596 882.044,403.8C879.916,387.484 877.102,373.166 876.942,372.185C876.056,366.755 875.813,363.056 869.888,329.9C867.346,315.674 867.352,315.674 864.869,301.425C857.106,256.866 843.144,211.277 835.223,170.218C828.726,136.539 824.952,106.102 818.569,66.529L819.906,65.987C828.398,117.19 832.023,149.683 842.658,193.4C851.354,229.149 862.062,264.37 869.556,301.594C874.41,325.709 879.189,345.544 883.847,369.086C883.85,369.099 886.015,382.323 887.681,397.039C890.872,425.223 890.581,442.457 889.564,464.374C884.523,573.092 861.479,613.03 857.22,620.635C837.075,656.602 805.27,681.805 780.216,715.586C750.468,755.696 717.308,810.42 688.921,841.2C671.753,859.816 659.817,869.469 651.178,875.804C628.184,892.666 610.538,898.125 595.625,901.899C575.67,906.949 542.603,913.028 471.003,918.532C432.647,921.481 393.499,917.772 351.113,916.166C321.779,915.054 300.65,914.268 276.776,908.525C246.79,901.311 215.598,891.204 189.834,875.083C162.371,857.898 126.773,835.61 109.784,803.455C103.221,791.033 98.453,774.563 97.686,771.913C84.353,725.849 81.87,668.838 81.902,657.333C82.008,619.039 95.379,583.026 98.972,544.555C102.625,505.432 99.389,465.99 105.643,426.224C111.867,386.658 118.921,329.32 132.68,284.096C135.256,275.63 138.327,267.751 138.872,266.351C145.798,248.581 151.116,241.19 153.122,238.351C177.735,203.507 224.168,185.031 245.388,150.841C267.886,114.591 272.111,68.733 284.746,28.761C284.952,28.106 285.163,27.453 285.37,26.798Z"/>
    </g>
</svg>
