<svg version="1.2" xmlns="http://www.w3.org/2000/svg" viewBox="0 0 1082 981" width="1082" height="981">
	<style>
		.s0 { fill: #ffffff } 
	</style>
	<g>
		<path fill-rule="evenodd" class="s0" d="m840.15 16.27l-1.61 0.51c7.5 24.2 9.82 42.23 15.62 66.48 3.39 14.14 9.99 39.55 24.64 59.92 25.83 35.94 91.02 52.8 112.55 92.68 4.92 9.12 9.64 20.81 14.78 39.92 11.62 43.2 15.25 96.03 19.77 136.44 4.99 44.65-4.99 91.13-0.61 134.51 3.6 35.62 15.06 70.02 10.5 105.64-1.53 11.99-7.67 56.5-23.33 98.85-13.27 35.89-26.17 51.38-37.51 62.72-20.87 20.89-49.69 39.01-86.75 60.11-12.93 7.37-45.79 25.07-111.41 42.24-35.61 9.32-71.46 11.5-111.03 15.81-34.79 3.78-85.79 9.95-129.9 9.63-61.35-0.43-139.89-1.97-181.05-14.28-21.74-6.5-41.03-17.29-60.45-31.57-17.06-12.54-28.47-23.81-30.77-26.08-34.2-33.78-76.04-92.49-103.34-120.04-28.42-28.67-65.04-53.23-82.95-86.48-13.56-25.19-25.27-75.02-21.41-151.1 0.88-17.39 2.01-33.9 8.52-61.66 3.96-16.9 8.62-31.8 8.9-32.82 1.54-5.64 2.14-9.45 12.2-43.92 4.31-14.79 4.3-14.79 8.54-29.6 13.27-46.31 34.36-94.17 47.54-136.9 10.81-35.05 17.96-66.56 29.1-107.64l-1.63-0.45c-14.7 53.18-21.83 86.78-38.61 132.46-13.73 37.35-29.93 74.31-42.27 113.08-7.99 25.11-15.55 45.83-23.25 70.34-0.01 0.02-3.77 13.75-7.03 28.97-6.24 29.16-7.25 46.8-7.73 69.19-2.4 111.07 23.21 150.18 27.92 157.64 22.3 35.26 60.03 58.56 88.63 91.2 33.97 38.74 71.03 92.2 104.04 121.49 19.97 17.72 34.11 26.66 44.4 32.46 27.38 15.46 49 19.64 67.33 22.32 24.53 3.58 65.37 7.17 154.4 7.09 47.69-0.04 96.91-6.98 150-12.01 36.74-3.49 63.21-5.98 93.5-13.78 38.05-9.79 77.83-22.65 111.32-41.24 35.69-19.82 81.95-45.52 105.75-79.84 9.2-13.26 16.47-30.53 17.64-33.31 20.35-48.3 28.01-106.95 28.89-118.74 2.93-39.26-10.9-75.12-12.32-114.27-1.43-39.83 5.76-80.53 1.13-120.8-4.61-40.07-8.84-98.3-22.42-143.57-2.54-8.47-5.75-16.3-6.32-17.69-7.24-17.67-13.29-24.82-15.57-27.57-27.97-33.76-84.52-48.99-108.3-82.35-25.21-35.37-26.83-82.05-39.42-122.03q-0.31-0.98-0.62-1.96z"/>
	</g>
</svg>